<svg height='300px' width='300px'  fill="#000000" xmlns="http://www.w3.org/2000/svg" xmlns:xlink="http://www.w3.org/1999/xlink" version="1.1" x="0px" y="0px" viewBox="0 0 100 100" style="enable-background:new 0 0 100 100;" xml:space="preserve"><style type="text/css">
	.st0{fill-rule:evenodd;clip-rule:evenodd;}
	.st1{fill:#000000;}
</style><g><g><path d="M96.3,88.8V53c0-3.2-2.7-6-6-6H21.6c-3.3,0-6,2.7-6,6v35.9c0,3.2,2.7,6,6,6h68.7C93.7,94.8,96.3,92.1,96.3,88.8z     M21.6,91.8c-1.6,0-3-1.4-3-3V53c0-1.6,1.3-3,3-3h68.7c1.6,0,3,1.4,3,3v35.9c0,1.6-1.3,3-3,3H21.6z"></path><path d="M27.6,53v35.9h56.8V53H27.6z M81.4,56v29.9H30.6V56H81.4z"></path><path d="M12.6,82.9h-3c-1.6,0-3-1.3-3-3V11.2c0-1.6,1.4-3,3-3h35.9c1.6,0,3,1.3,3,3V44h3V11.2c0-3.3-2.7-6-6-6H9.7    c-3.2,0-6,2.7-6,6v68.7c0,3.3,2.7,6,6,6h3V82.9z"></path><polygon points="12.6,70.9 12.6,47 12.6,20.1 42.5,20.1 42.5,44 45.5,44 45.5,17.1 9.7,17.1 9.7,73.9 12.6,73.9   "></polygon><path d="M90.7,32.7l-3.9,5.2c-2.5-13.2-12.8-23.6-26-26.1L65.9,8l-1.8-2.4l-9.7,7l7,9.7l2.4-1.8l-4.3-6    c12.3,2.1,22.1,11.9,24.3,24.2l-5.8-4.4l-1.8,2.4l9.5,7.2l7.2-9.5L90.7,32.7z"></path></g></g></svg>